<svg width="80" height="80" viewBox="0 0 80 80" fill="none" xmlns="http://www.w3.org/2000/svg">
<g opacity="0.25">
<rect x="15" y="12.0211" width="13" height="13" stroke="#06566A" stroke-width="2"/>
<path fill-rule="evenodd" clip-rule="evenodd" d="M35.2 11.0733L24.0788 22.1946L22.9235 23.3498L21.7683 22.1946L17 17.4263L19.0733 15.3529L22.8699 19.1495L22.9235 19.2031L22.9772 19.1495L33.1267 9L35.2 11.0733Z" fill="#06566A"/>
<rect x="37.2" y="14.5106" width="29" height="6" fill="#06566A"/>
</g>
<rect x="15" y="34.0422" width="13" height="13" stroke="#06566A" stroke-width="2"/>
<path fill-rule="evenodd" clip-rule="evenodd" d="M35.2 33.0944L24.0788 44.2157L22.9235 45.3709L21.7683 44.2157L17 39.4474L19.0733 37.374L22.8699 41.1706L22.9235 41.2242L22.9772 41.1706L33.1267 31.0211L35.2 33.0944Z" fill="#06566A"/>
<rect x="37.2" y="36.5316" width="29" height="6" fill="#06566A"/>
<g opacity="0.25">
<rect x="15" y="56.0633" width="13" height="13" stroke="#06566A" stroke-width="2"/>
<path fill-rule="evenodd" clip-rule="evenodd" d="M35.2 55.1155L24.0788 66.2368L22.9235 67.392L21.7683 66.2368L17 61.4685L19.0733 59.3951L22.8699 63.1917L22.9235 63.2453L22.9772 63.1917L33.1267 53.0422L35.2 55.1155Z" fill="#06566A"/>
<rect x="37.2" y="58.5528" width="29" height="6" fill="#06566A"/>
</g>
</svg>
