<svg width="80" height="80" viewBox="0 0 80 80" fill="none" xmlns="http://www.w3.org/2000/svg">
<rect width="60" height="30" transform="translate(10 25)" fill="#06566A"/>
<path d="M23.6914 42.6289V44H19.3965V42.6289H23.6914ZM19.9648 35.4688V44H18.207V35.4688H19.9648ZM26.5684 35.4688V44H24.8164V35.4688H26.5684ZM35.1582 35.4688V44H33.4004L29.9727 38.2812V44H28.2148V35.4688H29.9727L33.4062 41.1934V35.4688H35.1582ZM38.4453 35.4688V44H36.6875V35.4688H38.4453ZM43.5547 35.4688L40.1738 39.6816L38.2227 41.7793L37.9062 40.1152L39.2246 38.3105L41.3984 35.4688H43.5547ZM41.5566 44L39.043 40.0566L40.3438 38.9668L43.6367 44H41.5566Z" fill="#ECFF00"/>
<path fill-rule="evenodd" clip-rule="evenodd" d="M57.6845 33.7368C57.6845 33.2429 58.085 32.8424 58.5789 32.8424H62.2632C62.7571 32.8424 63.1576 33.2429 63.1576 33.7368V37.4211C63.1576 37.915 62.7571 38.3155 62.2632 38.3155C61.7692 38.3155 61.3687 37.915 61.3687 37.4211V35.8962L57.7377 39.5272C57.3884 39.8765 56.8221 39.8765 56.4728 39.5272C56.1235 39.1779 56.1235 38.6116 56.4728 38.2623L60.1038 34.6313H58.5789C58.085 34.6313 57.6845 34.2308 57.6845 33.7368Z" fill="#ECFF00"/>
<path fill-rule="evenodd" clip-rule="evenodd" d="M51.9474 35.3681C51.2205 35.3681 50.6313 35.9574 50.6313 36.6842V44.0526C50.6313 44.7795 51.2205 45.3687 51.9474 45.3687H59.3158C60.0426 45.3687 60.6319 44.7795 60.6319 44.0526V41.1053C60.6319 40.6113 61.0323 40.2108 61.5263 40.2108C62.0203 40.2108 62.4207 40.6113 62.4207 41.1053V44.0526C62.4207 45.7675 61.0306 47.1576 59.3158 47.1576H51.9474C50.2325 47.1576 48.8424 45.7675 48.8424 44.0526V36.6842C48.8424 34.9694 50.2325 33.5793 51.9474 33.5793H54.8947C55.3887 33.5793 55.7892 33.9797 55.7892 34.4737C55.7892 34.9677 55.3887 35.3681 54.8947 35.3681H51.9474Z" fill="#ECFF00"/>
</svg>
