<svg width="80" height="80" viewBox="0 0 80 80" fill="none" xmlns="http://www.w3.org/2000/svg">
<rect x="47" y="26" width="23" height="4" fill="#06566A" fill-opacity="0.25"/>
<rect x="47" y="32" width="23" height="4" fill="#06566A" fill-opacity="0.25"/>
<rect x="47" y="38" width="23" height="4" fill="#06566A" fill-opacity="0.25"/>
<rect x="10" y="44" width="60" height="4" fill="#06566A" fill-opacity="0.25"/>
<rect x="10" y="50" width="60" height="4" fill="#06566A" fill-opacity="0.25"/>
<rect x="10" y="56" width="44" height="4" fill="#06566A" fill-opacity="0.25"/>
<g clip-path="url(#clip0_306_2911)">
<path d="M18.1777 32.18C18.1777 30.64 18.5044 29.1933 19.1577 27.84C19.811 26.4867 20.6977 25.25 21.8177 24.13C22.9844 22.9633 24.3144 21.9833 25.8077 21.19L27.0677 22.8C25.901 23.7333 24.8977 24.76 24.0577 25.88C23.2177 26.9533 22.7977 28.05 22.7977 29.17C22.7977 29.8233 22.9144 30.2667 23.1477 30.5C23.381 30.7333 23.6844 30.9667 24.0577 31.2C24.571 31.48 25.0377 31.8767 25.4577 32.39C25.8777 32.9033 26.0877 33.6033 26.0877 34.49C26.0877 35.47 25.761 36.31 25.1077 37.01C24.4544 37.71 23.6144 38.06 22.5877 38.06C21.3744 38.06 20.3244 37.57 19.4377 36.59C18.5977 35.61 18.1777 34.14 18.1777 32.18ZM28.8877 32.18C28.8877 30.64 29.2144 29.1933 29.8677 27.84C30.521 26.4867 31.4077 25.25 32.5277 24.13C33.6944 22.9633 35.0244 21.9833 36.5177 21.19L37.7777 22.8C36.611 23.7333 35.6077 24.76 34.7677 25.88C33.9277 26.9533 33.5077 28.05 33.5077 29.17C33.5077 29.8233 33.6244 30.2667 33.8577 30.5C34.091 30.7333 34.3944 30.9667 34.7677 31.2C35.281 31.48 35.7477 31.8767 36.1677 32.39C36.5877 32.9033 36.7977 33.6033 36.7977 34.49C36.7977 35.47 36.471 36.31 35.8177 37.01C35.1644 37.71 34.3244 38.06 33.2977 38.06C32.0844 38.06 31.0344 37.57 30.1477 36.59C29.3077 35.61 28.8877 34.14 28.8877 32.18Z" fill="#06566A"/>
</g>
<defs>
<clipPath id="clip0_306_2911">
<rect width="21" height="18" fill="white" transform="translate(17 20)"/>
</clipPath>
</defs>
</svg>
